<?xml version="1.0" standalone="no"?><!DOCTYPE svg PUBLIC "-//W3C//DTD SVG 1.1//EN" "http://www.w3.org/Graphics/SVG/1.1/DTD/svg11.dtd"><svg t="1768470052494" class="icon" viewBox="0 0 1024 1024" version="1.1" xmlns="http://www.w3.org/2000/svg" p-id="8149" xmlns:xlink="http://www.w3.org/1999/xlink" width="200" height="200"><path d="M928 312c0 7.2 0.48 14.56 0 21.76a248.48 248.48 0 0 1-3.44 25.04q-3.2 17.68-8 35.04a199.44 199.44 0 0 1-8 25.12 292.96 292.96 0 0 1-25.84 51.28q-9.76 14.88-20 29.36a95.12 95.12 0 0 1-8.56 10c-5.2 5.52-10.24 11.2-16 16a313.2 313.2 0 0 1-26 20.96c-8 5.76-17.52 10-25.92 16A223.2 223.2 0 0 1 756.24 576c-8.88 4.16-18.4 5.6-27.44 8.8a262.72 262.72 0 0 1-35.44 8c-12.56 2.72-25.36 4.72-38 7.28-10.4 2.08-20.72 4.56-31.04 6.88-5.84 1.28-11.76 2.24-17.52 4-7.04 2.16-13.92 4.96-20.72 7.52a139.36 139.36 0 0 0-14 5.12c-6.48 3.28-12.56 7.28-19.04 10.8a104 104 0 0 0-27.36 22.24 257.6 257.6 0 0 0-18.48 24 197.36 197.36 0 0 0-22.32 44.48c-5.84 15.28-11.28 30.64-16.8 46.08s-9.92 29.04-15.12 43.52q-6.88 18.8-14.32 37.44a312 312 0 0 1-25.92 51.36 167.28 167.28 0 0 1-26.4 34.32 131.76 131.76 0 0 1-27.04 22.16 125.92 125.92 0 0 1-32 12.96 153.12 153.12 0 0 1-41.84 2.96 125.36 125.36 0 0 1-16-2.72 81.28 81.28 0 0 1-9.44-2.08 50.56 50.56 0 0 1-7.44-3.52 173.44 173.44 0 0 1-20.8-10.4 203.12 203.12 0 0 1-22.24-18 161.44 161.44 0 0 1-31.04-40 302.72 302.72 0 0 1-16-30.64c-4.48-10.08-8-20.72-11.36-31.2q-4.24-12.24-8-24.64c-2.16-7.36-3.84-14.88-5.6-22.32s-3.44-13.76-4.88-20.72c-2.56-12.4-4.96-24.88-7.44-37.36q-1.6-8-3.04-16c-1.36-8-2.64-16-3.92-24-1.04-5.92-2.16-11.76-3.04-17.6s-1.84-12.96-2.88-19.44-1.84-11.2-2.56-16.8l-2.08-16c-0.72-5.52-1.44-11.28-2.16-16.96S104 594.72 104 589.28l-2.24-18.96c0-2.24-0.56-4.48-0.72-6.72q-1.2-13.92-2.32-28-0.72-8.72-1.12-17.36c-0.48-9.04-0.96-18-1.12-27.04q-0.56-22.24-0.64-44.48c0-8.8 0-17.52 0.64-26.24s1.84-18.16 2.8-27.28c0.8-7.2 1.52-14.4 2.4-21.68 0.56-4.08 1.52-8 2.32-12.08 2.16-10 4.08-20 6.48-30 1.76-7.2 4.16-14.16 6.16-21.28a306 306 0 0 1 14.4-38.32 165.76 165.76 0 0 1 8.48-16.8c4.32-8 8.48-15.28 13.36-22.48q8.96-13.12 19.04-25.44A298.88 298.88 0 0 1 192 182.56c5.52-5.6 11.84-10.4 17.84-15.44s11.6-10.08 17.84-14.48c9.52-6.88 19.28-13.36 29.2-19.68 5.76-3.68 11.92-6.8 17.92-10.08 9.36-5.12 18.72-10.24 28.24-15.04 6-3.04 12.16-5.68 18.4-8 16-6.4 31.52-12.96 47.52-18.96 10.64-3.92 21.6-7.04 32-10.48 5.52-1.76 10.96-3.76 16.56-5.28s9.28-2 14-3.12 10.08-2.8 15.2-3.68c6.88-1.36 13.92-2.32 20.96-3.44s16-2.4 23.6-3.52c3.2-0.48 6.56-0.48 9.84-0.72l32.72-1.76A58.96 58.96 0 0 1 547.12 48a291.12 291.12 0 0 0 30.8 1.12c9.92 0.72 19.76 1.76 29.6 2.96 7.04 0.88 14.08 2.4 21.12 3.44s12.4 1.52 18.56 2.48c4.96 0.8 9.92 1.84 14.96 2.96 10.64 2.4 21.28 4.56 32 7.36s18.4 6.4 27.84 8.56c10.88 2.64 20.8 8 31.28 11.12s19.92 9.84 30.08 14.08A192 192 0 0 1 816 122.4a240.48 240.48 0 0 1 23.12 17.84q16 14.24 31.36 29.68c6 6 11.04 13.12 16.48 19.68a192 192 0 0 1 21.44 35.36A206 206 0 0 1 920.8 256c2.8 8.64 3.6 17.92 5.68 26.8A104 104 0 0 1 928 312z" p-id="8150"></path></svg>